<svg xmlns="http://www.w3.org/2000/svg" width="512" height="512" viewBox="0 0 512 512">
  <defs>
    <radialGradient id="glow" cx="50%" cy="50%" r="50%">
      <stop offset="0%" stop-color="#FFFDF4" stop-opacity="1"/>
      <stop offset="35%" stop-color="#F5E9BF" stop-opacity="0.92"/>
      <stop offset="70%" stop-color="#E7D49A" stop-opacity="0.36"/>
      <stop offset="100%" stop-color="#E7D49A" stop-opacity="0"/>
    </radialGradient>
    <filter id="softGlow" x="-50%" y="-50%" width="200%" height="200%">
      <feGaussianBlur stdDeviation="10" result="blur"/>
      <feMerge>
        <feMergeNode in="blur"/>
        <feMergeNode in="SourceGraphic"/>
      </feMerge>
    </filter>
    <clipPath id="mainClip">
      <circle cx="256.00" cy="256.00" r="92.00"/>
      <circle cx="256.00" cy="164.00" r="92.00"/>
      <circle cx="335.67" cy="210.00" r="92.00"/>
      <circle cx="335.67" cy="302.00" r="92.00"/>
      <circle cx="256.00" cy="348.00" r="92.00"/>
      <circle cx="176.33" cy="302.00" r="92.00"/>
      <circle cx="176.33" cy="210.00" r="92.00"/>
    </clipPath>
  </defs>
  <g clip-path="url(#mainClip)">
<circle cx="335.67" cy="302.00" r="92.00" stroke="none" stroke-width="0" fill="#B7C9D5" opacity="0.92" />
<circle cx="256.00" cy="348.00" r="92.00" stroke="none" stroke-width="0" fill="#B8B8B1" opacity="0.92" />
<circle cx="176.33" cy="302.00" r="92.00" stroke="none" stroke-width="0" fill="#E6D7BE" opacity="0.92" />
  </g>
<circle cx="256.00" cy="256.00" r="58.00" stroke="#F2EBDD" stroke-width="2.2" fill="none" opacity="0.35" />
<circle cx="256.00" cy="198.00" r="58.00" stroke="#F2EBDD" stroke-width="2.2" fill="none" opacity="0.35" />
<circle cx="306.23" cy="227.00" r="58.00" stroke="#F2EBDD" stroke-width="2.2" fill="none" opacity="0.35" />
<circle cx="306.23" cy="285.00" r="58.00" stroke="#F2EBDD" stroke-width="2.2" fill="none" opacity="0.35" />
<circle cx="256.00" cy="314.00" r="58.00" stroke="#F2EBDD" stroke-width="2.2" fill="none" opacity="0.35" />
<circle cx="205.77" cy="285.00" r="58.00" stroke="#F2EBDD" stroke-width="2.2" fill="none" opacity="0.35" />
<circle cx="205.77" cy="227.00" r="58.00" stroke="#F2EBDD" stroke-width="2.2" fill="none" opacity="0.35" />
<circle cx="256.00" cy="256.00" r="92.00" stroke="#D9CDB8" stroke-width="5" fill="none" opacity="0.95" />
<circle cx="256.00" cy="164.00" r="92.00" stroke="#D9CDB8" stroke-width="5" fill="none" opacity="0.95" />
<circle cx="335.67" cy="210.00" r="92.00" stroke="#D9CDB8" stroke-width="5" fill="none" opacity="0.95" />
<circle cx="335.67" cy="302.00" r="92.00" stroke="#D9CDB8" stroke-width="5" fill="none" opacity="0.95" />
<circle cx="256.00" cy="348.00" r="92.00" stroke="#D9CDB8" stroke-width="5" fill="none" opacity="0.95" />
<circle cx="176.33" cy="302.00" r="92.00" stroke="#D9CDB8" stroke-width="5" fill="none" opacity="0.95" />
<circle cx="176.33" cy="210.00" r="92.00" stroke="#D9CDB8" stroke-width="5" fill="none" opacity="0.95" />
<circle cx="256.00" cy="106.00" r="6" fill="#EFE6D2" opacity="0.95"/>
<circle cx="386.00" cy="181.00" r="6" fill="#EFE6D2" opacity="0.95"/>
<circle cx="386.00" cy="331.00" r="6" fill="#EFE6D2" opacity="0.95"/>
<circle cx="256.00" cy="406.00" r="6" fill="#EFE6D2" opacity="0.95"/>
<circle cx="126.00" cy="331.00" r="6" fill="#EFE6D2" opacity="0.95"/>
<circle cx="126.00" cy="181.00" r="6" fill="#EFE6D2" opacity="0.95"/>
<circle cx="331.00" cy="386.00" r="6" fill="#EFE6D2" opacity="0.95"/>
<circle cx="181.00" cy="386.00" r="6" fill="#EFE6D2" opacity="0.95"/>
<circle cx="331.00" cy="126.00" r="6" fill="#EFE6D2" opacity="0.95"/>
<circle cx="181.00" cy="126.00" r="6" fill="#EFE6D2" opacity="0.95"/>
<circle cx="256" cy="256" r="78" fill="url(#glow)" filter="url(#softGlow)"/>
<circle cx="256" cy="256" r="7.5" fill="#FFFDF8"/>
</svg>
